<mxfile host="app.diagrams.net" modified="2023-05-16T22:03:33.749Z" agent="Mozilla/5.0 (Macintosh; Intel Mac OS X 10_15_7) AppleWebKit/605.1.15 (KHTML, like Gecko) Version/15.6.1 Safari/605.1.15" etag="ZV0LVrRBH9Pqzo8POL8J" version="21.2.9" type="device">
  <diagram name="Страница 1" id="ppinPdBVUEu68U0y8L-f">
    <mxGraphModel dx="1235" dy="1907" grid="1" gridSize="10" guides="1" tooltips="1" connect="1" arrows="1" fold="1" page="1" pageScale="1" pageWidth="827" pageHeight="1169" math="0" shadow="0">
      <root>
        <mxCell id="0" />
        <mxCell id="1" parent="0" />
        <mxCell id="o4cNiu59GhhHxO87jH9N-113" value="&lt;div style=&quot;box-sizing:border-box;width:100%;background:#e4e4e4;padding:2px;&quot;&gt;bot&lt;/div&gt;&lt;table style=&quot;width:100%;font-size:1em;&quot; cellpadding=&quot;2&quot; cellspacing=&quot;0&quot;&gt;&lt;tbody&gt;&lt;tr&gt;&lt;td&gt;PK&lt;/td&gt;&lt;td&gt;id&lt;/td&gt;&lt;/tr&gt;&lt;tr&gt;&lt;td&gt;&lt;br&gt;&lt;/td&gt;&lt;td&gt;email&lt;/td&gt;&lt;/tr&gt;&lt;tr&gt;&lt;td&gt;&lt;/td&gt;&lt;td&gt;&lt;br&gt;&lt;/td&gt;&lt;/tr&gt;&lt;/tbody&gt;&lt;/table&gt;" style="verticalAlign=top;align=left;overflow=fill;html=1;whiteSpace=wrap;" vertex="1" parent="1">
          <mxGeometry x="500" y="370" width="180" height="60" as="geometry" />
        </mxCell>
        <mxCell id="o4cNiu59GhhHxO87jH9N-114" value="&lt;div style=&quot;box-sizing:border-box;width:100%;background:#e4e4e4;padding:2px;&quot;&gt;nurse&lt;/div&gt;&lt;table style=&quot;width:100%;font-size:1em;&quot; cellpadding=&quot;2&quot; cellspacing=&quot;0&quot;&gt;&lt;tbody&gt;&lt;tr&gt;&lt;td&gt;PK&lt;/td&gt;&lt;td&gt;id&lt;/td&gt;&lt;/tr&gt;&lt;tr&gt;&lt;td&gt;FK1&lt;/td&gt;&lt;td&gt;hospitalId&lt;/td&gt;&lt;/tr&gt;&lt;tr&gt;&lt;td&gt;&lt;span style=&quot;white-space: pre;&quot;&gt;FK2&lt;/span&gt;&lt;/td&gt;&lt;td&gt;tgId&lt;/td&gt;&lt;/tr&gt;&lt;tr&gt;&lt;td&gt;&lt;br&gt;&lt;/td&gt;&lt;td&gt;fname&lt;br&gt;lname&lt;br&gt;email&lt;br&gt;password&lt;br&gt;isActive&lt;br&gt;phoneNumber&lt;br&gt;&lt;br&gt;&lt;/td&gt;&lt;/tr&gt;&lt;tr&gt;&lt;td&gt;&lt;br&gt;&lt;/td&gt;&lt;td&gt;&lt;br&gt;&lt;/td&gt;&lt;/tr&gt;&lt;tr&gt;&lt;td&gt;&lt;br&gt;&lt;/td&gt;&lt;td&gt;&lt;br&gt;&lt;/td&gt;&lt;/tr&gt;&lt;tr&gt;&lt;td&gt;&lt;br&gt;&lt;/td&gt;&lt;td&gt;&lt;br&gt;&lt;/td&gt;&lt;/tr&gt;&lt;tr&gt;&lt;td&gt;&lt;br&gt;&lt;/td&gt;&lt;td&gt;&lt;br&gt;&lt;/td&gt;&lt;/tr&gt;&lt;tr&gt;&lt;td&gt;&lt;br&gt;&lt;/td&gt;&lt;td&gt;&lt;br&gt;&lt;/td&gt;&lt;/tr&gt;&lt;tr&gt;&lt;td&gt;&lt;br&gt;&lt;/td&gt;&lt;td&gt;&lt;br&gt;&lt;/td&gt;&lt;/tr&gt;&lt;tr&gt;&lt;td&gt;&lt;br&gt;&lt;/td&gt;&lt;td&gt;&lt;br&gt;&lt;/td&gt;&lt;/tr&gt;&lt;/tbody&gt;&lt;/table&gt;" style="verticalAlign=top;align=left;overflow=fill;html=1;whiteSpace=wrap;" vertex="1" parent="1">
          <mxGeometry x="500" y="140" width="180" height="170" as="geometry" />
        </mxCell>
        <mxCell id="o4cNiu59GhhHxO87jH9N-116" value="1" style="endArrow=open;html=1;endSize=12;startArrow=diamondThin;startSize=14;startFill=0;edgeStyle=orthogonalEdgeStyle;align=left;verticalAlign=bottom;rounded=0;entryX=-0.005;entryY=0.365;entryDx=0;entryDy=0;entryPerimeter=0;exitX=0;exitY=0.5;exitDx=0;exitDy=0;" edge="1" parent="1" source="o4cNiu59GhhHxO87jH9N-113" target="o4cNiu59GhhHxO87jH9N-114">
          <mxGeometry x="-0.8813" y="-10" relative="1" as="geometry">
            <mxPoint x="490" y="430" as="sourcePoint" />
            <mxPoint x="510" y="320" as="targetPoint" />
            <Array as="points">
              <mxPoint x="510" y="400" />
              <mxPoint x="450" y="400" />
              <mxPoint x="450" y="202" />
            </Array>
            <mxPoint as="offset" />
          </mxGeometry>
        </mxCell>
        <mxCell id="o4cNiu59GhhHxO87jH9N-117" value="&lt;div style=&quot;box-sizing:border-box;width:100%;background:#e4e4e4;padding:2px;&quot;&gt;hospital&lt;/div&gt;&lt;table style=&quot;width:100%;font-size:1em;&quot; cellpadding=&quot;2&quot; cellspacing=&quot;0&quot;&gt;&lt;tbody&gt;&lt;tr&gt;&lt;td&gt;PK&lt;/td&gt;&lt;td&gt;id&lt;/td&gt;&lt;/tr&gt;&lt;tr&gt;&lt;td&gt;&lt;/td&gt;&lt;td&gt;name&lt;br&gt;address&lt;br&gt;verified&lt;br&gt;email&lt;br&gt;password&lt;br&gt;privateKey&lt;/td&gt;&lt;/tr&gt;&lt;tr&gt;&lt;td&gt;&lt;br&gt;&lt;/td&gt;&lt;td&gt;&lt;br&gt;&lt;/td&gt;&lt;/tr&gt;&lt;tr&gt;&lt;td&gt;&lt;br&gt;&lt;/td&gt;&lt;td&gt;&lt;br&gt;&lt;/td&gt;&lt;/tr&gt;&lt;/tbody&gt;&lt;/table&gt;" style="verticalAlign=top;align=left;overflow=fill;html=1;whiteSpace=wrap;" vertex="1" parent="1">
          <mxGeometry x="500" y="-30" width="180" height="135" as="geometry" />
        </mxCell>
        <mxCell id="o4cNiu59GhhHxO87jH9N-118" style="edgeStyle=orthogonalEdgeStyle;rounded=0;orthogonalLoop=1;jettySize=auto;html=1;exitX=0.5;exitY=1;exitDx=0;exitDy=0;" edge="1" parent="1" source="o4cNiu59GhhHxO87jH9N-117" target="o4cNiu59GhhHxO87jH9N-117">
          <mxGeometry relative="1" as="geometry" />
        </mxCell>
        <mxCell id="o4cNiu59GhhHxO87jH9N-119" value="1" style="endArrow=open;html=1;endSize=12;startArrow=diamondThin;startSize=14;startFill=0;edgeStyle=orthogonalEdgeStyle;align=left;verticalAlign=bottom;rounded=0;entryX=-0.005;entryY=0.176;entryDx=0;entryDy=0;entryPerimeter=0;exitX=0;exitY=0.25;exitDx=0;exitDy=0;" edge="1" parent="1" source="o4cNiu59GhhHxO87jH9N-114" target="o4cNiu59GhhHxO87jH9N-117">
          <mxGeometry x="-0.9334" relative="1" as="geometry">
            <mxPoint x="490" y="190" as="sourcePoint" />
            <mxPoint x="30" y="265" as="targetPoint" />
            <Array as="points">
              <mxPoint x="450" y="183" />
              <mxPoint x="450" y="-6" />
            </Array>
            <mxPoint as="offset" />
          </mxGeometry>
        </mxCell>
      </root>
    </mxGraphModel>
  </diagram>
</mxfile>
